<svg xmlns="http://www.w3.org/2000/svg" width="1920" height="411" fill="none" viewBox="0 0 1920 411">
  <g clip-path="url(#a)">
    <g filter="url(#b)">
      <path fill="#656F6E" d="M1497.5 241.5c43-16.5 239.5-196 272.5-200s91.42 78.622 150 129V397H-.135V49S187.5 84.5 228.5 101.5 394 224 424 229s261.5-91.5 322-92 409 136.5 463 142.5 245.5-21.5 288.5-38Z"/>
    </g>
    <g filter="url(#c)">
      <path fill="#fff" d="M1497.5 255.5c43-16.5 239.5-196 272.5-200s91.42 78.622 150 129V411H-.135V63S187.5 98.5 228.5 115.5 394 238 424 243s261.5-91.5 322-92 409 136.5 463 142.5 245.5-21.5 288.5-38Z"/>
    </g>
  </g>
  <defs>
    <filter id="b" width="1942.93" height="378.44" x="-11.535" y="25.96" color-interpolation-filters="sRGB" filterUnits="userSpaceOnUse">
      <feFlood flood-opacity="0" result="BackgroundImageFix"/>
      <feColorMatrix in="SourceAlpha" result="hardAlpha" values="0 0 0 0 0 0 0 0 0 0 0 0 0 0 0 0 0 0 127 0"/>
      <feOffset dy="-4"/>
      <feGaussianBlur stdDeviation="5.7"/>
      <feComposite in2="hardAlpha" operator="out"/>
      <feColorMatrix values="0 0 0 0 0 0 0 0 0 0 0 0 0 0 0 0 0 0 0.25 0"/>
      <feBlend in2="BackgroundImageFix" result="effect1_dropShadow_69_7"/>
      <feBlend in="SourceGraphic" in2="effect1_dropShadow_69_7" result="shape"/>
    </filter>
    <filter id="c" width="1942.93" height="378.44" x="-11.535" y="39.96" color-interpolation-filters="sRGB" filterUnits="userSpaceOnUse">
      <feFlood flood-opacity="0" result="BackgroundImageFix"/>
      <feColorMatrix in="SourceAlpha" result="hardAlpha" values="0 0 0 0 0 0 0 0 0 0 0 0 0 0 0 0 0 0 127 0"/>
      <feOffset dy="-4"/>
      <feGaussianBlur stdDeviation="5.7"/>
      <feComposite in2="hardAlpha" operator="out"/>
      <feColorMatrix values="0 0 0 0 0 0 0 0 0 0 0 0 0 0 0 0 0 0 0.25 0"/>
      <feBlend in2="BackgroundImageFix" result="effect1_dropShadow_69_7"/>
      <feBlend in="SourceGraphic" in2="effect1_dropShadow_69_7" result="shape"/>
    </filter>
    <clipPath id="a">
      <path fill="#fff" d="M-1 0h1921v411H-1z"/>
    </clipPath>
  </defs>
</svg>
